<svg width="76" height="76" viewBox="0 0 76 76" fill="none" xmlns="http://www.w3.org/2000/svg">
<mask id="path-1-outside-1_316_7638" maskUnits="userSpaceOnUse" x="0" y="0" width="76" height="76" fill="black">
<rect fill="white" width="76" height="76"/>
<path fill-rule="evenodd" clip-rule="evenodd" d="M31.1379 1.2018C30.6697 1.3164 29.822 1.6621 29.2541 1.97018C28.6862 2.27827 27.6482 2.84467 26.9474 3.22872C25.8126 3.85074 25.402 3.98232 23.1905 4.43193C21.7318 4.7286 20.3746 5.09522 19.9 5.32091C19.0595 5.72047 17.7022 7.00139 15.7797 9.2095C14.9257 10.1902 14.5172 10.5093 12.8815 11.4741C9.78517 13.3001 8.9841 14.2578 7.80787 17.5395C7.10998 19.4866 6.71554 20.2077 5.66393 21.4595C2.96904 24.6671 2.64879 25.566 2.64618 29.93L2.64502 31.7412L1.82251 34.1012C1.02304 36.3952 1 36.5043 1 37.998C1 39.4917 1.02304 39.6008 1.82251 41.8948L2.64502 44.2548L2.64618 46.066C2.64879 50.43 2.96904 51.3289 5.66393 54.5365C6.71554 55.7881 7.10998 56.5094 7.80787 58.4564C8.6014 60.6706 9.01642 61.4154 10.0328 62.4492C10.7087 63.1366 11.4509 63.6779 12.6422 64.3518C14.3966 65.3446 15.08 65.9473 17.3457 68.5005C18.7052 70.0327 19.6033 70.6524 21.1148 71.1016C22.1251 71.4018 22.2615 71.412 22.6111 71.2138C22.8266 71.0916 23.0541 70.7898 23.1286 70.5277C23.3389 69.7876 22.9849 69.3904 21.7965 69.033C20.5904 68.6701 19.8874 68.1741 18.86 66.9608C16.8181 64.5493 16.0206 63.8333 14.077 62.6665C11.1246 60.8941 10.9071 60.6364 9.82313 57.624C9.03395 55.4312 8.60082 54.6578 7.27402 53.0729C5.02879 50.3912 4.9743 50.2429 4.82577 46.4136L4.71216 43.4864L3.94602 41.3642C3.2461 39.4253 3.18003 39.1346 3.18003 37.998C3.18003 36.8614 3.2461 36.5707 3.94602 34.6318L4.71216 32.5096L4.82316 29.5824C4.96995 25.715 4.99053 25.6582 7.21417 22.9963C8.604 21.3325 9.02859 20.5799 9.82313 18.372C10.9071 15.3596 11.1246 15.1019 14.077 13.3295C16.0379 12.1523 16.5046 11.7311 19.0571 8.8338C20.3248 7.39495 20.9868 7.06711 23.5862 6.59071C26.1425 6.12237 26.8061 5.88 28.9507 4.63156C30.0017 4.01964 31.0853 3.50899 31.6505 3.35927C32.5786 3.11339 32.634 3.11573 34.9831 3.50285C36.2969 3.71946 37.6558 3.89655 38.003 3.89655C38.3503 3.89655 39.7092 3.71946 41.023 3.50285C43.3772 3.11485 43.4256 3.1128 44.363 3.36117C44.9232 3.50958 45.9708 3.99812 46.9117 4.5496C49.7241 6.19847 50.6092 6.43835 51.1793 5.70627C51.826 4.87598 51.5214 4.48725 49.306 3.31683C44.4498 0.750875 44.3711 0.732287 40.8066 1.31113C39.4639 1.52906 38.1697 1.70586 37.9306 1.70381C37.6915 1.70176 36.5212 1.53565 35.3297 1.3347C32.8893 0.923138 32.3485 0.906014 31.1379 1.2018ZM54.6315 5.3575C54.215 5.68841 54.1176 6.18618 54.3745 6.67106C54.4525 6.81815 54.8685 7.13912 55.2991 7.38456C55.7652 7.65034 56.4553 8.26271 57.0051 8.89834C59.1157 11.3393 60.3208 12.4199 61.9856 13.3649C64.7123 14.9123 65.1079 15.3842 66.183 18.372C66.9721 20.5648 67.4053 21.3382 68.7321 22.9231C70.9773 25.6048 71.0318 25.7531 71.1803 29.5824L71.2939 32.5096L72.0601 34.6318C72.76 36.5707 72.8261 36.8614 72.8261 37.998C72.8261 39.1346 72.76 39.4253 72.0601 41.3642L71.2939 43.4864L71.1803 46.4136C71.0318 50.2439 70.9761 50.3948 68.7303 53.0729C67.4579 54.5903 66.8879 55.6059 66.1846 57.61C65.09 60.7279 64.9511 60.8817 61.2178 63.1071C60.0205 63.8207 59.2376 64.5645 56.949 67.1622C55.6813 68.601 55.0192 68.9289 52.4198 69.4053C49.8636 69.8736 49.1999 70.116 47.0554 71.3644C46.0044 71.9764 44.9208 72.487 44.3556 72.6367C43.4275 72.8826 43.3721 72.8803 41.023 72.4931C39.7092 72.2765 38.3503 72.0994 38.003 72.0994C37.6558 72.0994 36.2969 72.2765 34.9831 72.4931C32.6289 72.8811 32.5805 72.8832 31.6431 72.6348C31.075 72.4844 30.0268 71.9928 29.0407 71.4143C27.237 70.3565 26.6773 70.2321 26.2303 70.7897C25.9707 71.1133 25.9051 71.5973 26.0638 72.0151C26.1613 72.2717 28.4212 73.658 29.8032 74.3092C30.2882 74.5376 31.1516 74.8049 31.7216 74.9029C32.6625 75.0648 32.9839 75.0448 35.1995 74.6849C36.5422 74.4669 37.8038 74.2885 38.003 74.2885C38.2023 74.2885 39.4639 74.4669 40.8066 74.6849C44.3223 75.2558 44.8513 75.1354 48.983 72.8223C50.2156 72.1322 50.5317 72.0285 52.8124 71.5647C54.2737 71.2675 55.6312 70.9009 56.1061 70.6751C56.9465 70.2755 58.3039 68.9946 60.2264 66.7865C61.0804 65.8058 61.4889 65.4867 63.1246 64.5219C66.1903 62.7139 67.0337 61.7058 68.1982 58.4564C68.8961 56.5094 69.2905 55.7881 70.3422 54.5365C73.0371 51.3289 73.3573 50.43 73.3599 46.066L73.3611 44.2548L74.1805 41.8948C74.9761 39.6034 75 39.49 75 37.998C75 36.506 74.9761 36.3926 74.1805 34.1012L73.3611 31.7412L73.3599 29.93C73.3573 25.566 73.0371 24.6671 70.3422 21.4595C69.2905 20.2079 68.8961 19.4866 68.1982 17.5396C67.4035 15.3223 66.9901 14.5807 65.9733 13.5496C65.316 12.8831 64.5 12.2839 63.2898 11.5795C61.4763 10.5235 60.8875 10.0044 58.6666 7.50194C56.8109 5.41106 55.4647 4.69552 54.6315 5.3575ZM46.8099 10.4108C45.6066 11.0925 45.9896 12.8831 47.3792 13.0713C47.9188 13.1443 48.0381 13.1031 48.4296 12.7076C49.6051 11.5202 48.2483 9.59618 46.8099 10.4108ZM29.6784 13.2867C27.3723 13.6313 24.3941 16.3032 23.4235 18.8983C23.001 20.028 23.0507 21.4753 23.5471 22.4963C24.3743 24.1974 26.6338 25.8558 28.8385 26.3799C33.0934 27.3914 36.8635 23.9786 36.2585 19.6633C36.0058 17.861 35.1737 16.1428 33.9485 14.8927C32.6599 13.5781 31.2576 13.0507 29.6784 13.2867ZM31.4531 15.6667C32.99 16.4828 34.4049 19.359 34.135 21.1181C33.8505 22.971 32.231 24.3867 30.3957 24.3867C28.5601 24.3867 26.1523 22.9559 25.5035 21.4796C24.9646 20.2534 25.6225 18.6208 27.2926 17.0391C28.802 15.6096 30.3709 15.0921 31.4531 15.6667ZM56.1227 18.4855C54.7884 18.7673 53.1461 19.7919 51.889 21.1269C49.7222 23.428 49.0982 25.7649 50.099 27.8308C51.2614 30.2308 55.0446 32.1612 57.7547 31.7375C59.7153 31.4311 61.449 30.1484 62.2885 28.3834C62.819 27.2679 62.9478 25.1849 62.5683 23.8579C61.9584 21.7255 60.4306 19.6886 58.8701 18.9277C58.079 18.542 56.817 18.3389 56.1227 18.4855ZM14.7812 19.2759C14.4484 19.4717 14.0929 20.1786 14.0929 20.645C14.0929 20.8489 14.2803 21.2277 14.5092 21.4865C14.833 21.8524 15.0425 21.9571 15.4503 21.9571C16.8259 21.9571 17.4544 20.405 16.457 19.4713C16.0528 19.0931 15.251 18.9995 14.7812 19.2759ZM57.7864 20.8552C60.102 21.9176 61.3695 25.7534 60.0949 27.8403C59.5775 28.6874 58.4652 29.4276 57.4865 29.5758C55.5502 29.8691 52.6014 28.3009 51.9753 26.645C51.5323 25.4734 51.9883 24.2116 53.4091 22.6777C54.2924 21.7238 55.1313 21.1327 56.0942 20.7854C56.8074 20.5281 57.0997 20.5401 57.7864 20.8552ZM42.629 21.3019C42.0801 21.8563 42.056 22.5751 42.5661 23.1873C43.227 23.9805 44.4172 23.8392 44.8925 22.9108C45.0928 22.5196 45.1071 22.3409 44.9736 21.891C44.658 20.827 43.4098 20.5135 42.629 21.3019ZM20.5244 29.7409C19.2382 30.3818 19.676 32.4364 21.0987 32.4364C21.6953 32.4364 22.4197 31.8918 22.5568 31.3403C22.703 30.752 22.2935 29.9695 21.7105 29.7235C21.0907 29.462 21.0842 29.462 20.5244 29.7409ZM37.7132 32.3099C36.6199 32.7421 35.0605 34.3433 34.4119 35.6996C33.0325 38.5836 33.2296 41.3199 34.9595 43.3049C36.9077 45.5401 40.0689 45.9448 43.0897 44.3454C45.9716 42.8195 47.245 40.3191 46.418 37.8093C45.7727 35.8506 43.8434 33.6765 41.8384 32.6486C40.4393 31.9315 38.9748 31.8111 37.7132 32.3099ZM40.9727 34.641C42.0465 35.1736 43.5566 36.738 44.0839 37.8641C44.602 38.9701 44.6343 39.5782 44.2206 40.4413C43.3223 42.3154 39.8089 43.6843 37.991 42.8686C35.5086 41.7546 34.9508 38.8466 36.6935 36.1037C37.8755 34.2433 39.2346 33.7788 40.9727 34.641ZM66.4778 37.5825C65.7192 38.0039 65.4862 38.8033 65.8914 39.5946C66.5418 40.8649 68.5001 40.3081 68.5001 38.8529C68.5001 37.8151 67.3547 37.0954 66.4778 37.5825ZM16.8184 39.0232C14.641 39.4041 11.924 41.7317 10.8382 44.1471C10.3029 45.3377 10.185 46.7218 10.5306 47.7551C11.2347 49.8602 13.7747 51.7432 16.5609 52.2258C19.2065 52.684 21.7823 51.3358 22.9394 48.887C24.0846 46.4635 23.39 43.1214 21.2578 40.7953C19.9593 39.3787 18.3834 38.7497 16.8184 39.0232ZM54.9594 40.5959C54.3545 41.1525 54.2676 41.7429 54.6961 42.3841C55.5486 43.6597 57.2761 43.0722 57.2761 41.5066C57.2761 41.1959 57.14 40.9116 56.8525 40.6212C56.2836 40.0466 55.5667 40.0369 54.9594 40.5959ZM18.9455 41.6403C20.7031 42.8384 21.7928 45.828 21.1203 47.6066C20.5986 48.9866 19.3617 49.9547 17.9297 50.104C16.318 50.2719 13.7698 49.039 12.9149 47.6774C12.0655 46.3245 12.5603 44.6882 14.3453 42.9477C16.2086 41.1311 17.6129 40.732 18.9455 41.6403ZM60.2716 50.4447C59.5678 51.004 59.6745 52.3534 60.4561 52.7758C60.9517 53.0438 61.7228 52.952 62.1587 52.5734C62.4963 52.2801 62.5653 52.104 62.5653 51.5361C62.5653 50.9683 62.4963 50.7922 62.1587 50.4989C61.6406 50.0488 60.8003 50.0247 60.2716 50.4447ZM47.9465 51.0316C46.8073 51.3192 45.6298 52.0961 44.3026 53.4357C41.2831 56.4832 41.0246 59.3714 43.5467 61.8797C44.4657 62.7936 46.1939 63.7564 47.4222 64.0389C48.4103 64.2662 50.1277 64.2263 50.9758 63.9562C53.167 63.2587 54.8045 61.1811 55.0526 58.7838C55.3234 56.1666 53.3667 52.4948 51.1059 51.3776C50.2289 50.9444 48.8781 50.7964 47.9465 51.0316ZM33.3471 51.5231C32.7312 51.7243 32.2587 52.5327 32.4073 53.1308C32.6875 54.2585 34.0156 54.6347 34.8262 53.8159C35.3751 53.2615 35.3992 52.5428 34.8891 51.9306C34.4648 51.4212 34.0193 51.3036 33.3471 51.5231ZM50.1636 53.3595C51.7364 54.17 53.1399 56.9946 52.8708 58.8079C52.7288 59.7636 52.0373 60.8665 51.2493 61.3936C50.4439 61.9324 49.9051 62.0549 48.6871 61.9759C46.3016 61.8212 43.7097 59.5779 44.0154 57.9324C44.3276 56.2513 46.3678 53.9417 48.1124 53.2945C48.8823 53.0088 49.5224 53.0291 50.1636 53.3595ZM22.4651 58.1309C21.2442 58.8 21.736 60.8299 23.1191 60.8299C24.5308 60.8299 25.0978 58.925 23.905 58.1904C23.3545 57.8515 23.0015 57.8368 22.4651 58.1309ZM36.5699 63.3759C35.7603 63.829 35.613 64.825 36.2493 65.5442C36.5968 65.937 36.7742 66.019 37.2785 66.019C38.7267 66.019 39.2533 64.0442 37.982 63.3802C37.4898 63.1232 37.0239 63.1217 36.5699 63.3759Z"/>
</mask>
<path fill-rule="evenodd" clip-rule="evenodd" d="M31.1379 1.2018C30.6697 1.3164 29.822 1.6621 29.2541 1.97018C28.6862 2.27827 27.6482 2.84467 26.9474 3.22872C25.8126 3.85074 25.402 3.98232 23.1905 4.43193C21.7318 4.7286 20.3746 5.09522 19.9 5.32091C19.0595 5.72047 17.7022 7.00139 15.7797 9.2095C14.9257 10.1902 14.5172 10.5093 12.8815 11.4741C9.78517 13.3001 8.9841 14.2578 7.80787 17.5395C7.10998 19.4866 6.71554 20.2077 5.66393 21.4595C2.96904 24.6671 2.64879 25.566 2.64618 29.93L2.64502 31.7412L1.82251 34.1012C1.02304 36.3952 1 36.5043 1 37.998C1 39.4917 1.02304 39.6008 1.82251 41.8948L2.64502 44.2548L2.64618 46.066C2.64879 50.43 2.96904 51.3289 5.66393 54.5365C6.71554 55.7881 7.10998 56.5094 7.80787 58.4564C8.6014 60.6706 9.01642 61.4154 10.0328 62.4492C10.7087 63.1366 11.4509 63.6779 12.6422 64.3518C14.3966 65.3446 15.08 65.9473 17.3457 68.5005C18.7052 70.0327 19.6033 70.6524 21.1148 71.1016C22.1251 71.4018 22.2615 71.412 22.6111 71.2138C22.8266 71.0916 23.0541 70.7898 23.1286 70.5277C23.3389 69.7876 22.9849 69.3904 21.7965 69.033C20.5904 68.6701 19.8874 68.1741 18.86 66.9608C16.8181 64.5493 16.0206 63.8333 14.077 62.6665C11.1246 60.8941 10.9071 60.6364 9.82313 57.624C9.03395 55.4312 8.60082 54.6578 7.27402 53.0729C5.02879 50.3912 4.9743 50.2429 4.82577 46.4136L4.71216 43.4864L3.94602 41.3642C3.2461 39.4253 3.18003 39.1346 3.18003 37.998C3.18003 36.8614 3.2461 36.5707 3.94602 34.6318L4.71216 32.5096L4.82316 29.5824C4.96995 25.715 4.99053 25.6582 7.21417 22.9963C8.604 21.3325 9.02859 20.5799 9.82313 18.372C10.9071 15.3596 11.1246 15.1019 14.077 13.3295C16.0379 12.1523 16.5046 11.7311 19.0571 8.8338C20.3248 7.39495 20.9868 7.06711 23.5862 6.59071C26.1425 6.12237 26.8061 5.88 28.9507 4.63156C30.0017 4.01964 31.0853 3.50899 31.6505 3.35927C32.5786 3.11339 32.634 3.11573 34.9831 3.50285C36.2969 3.71946 37.6558 3.89655 38.003 3.89655C38.3503 3.89655 39.7092 3.71946 41.023 3.50285C43.3772 3.11485 43.4256 3.1128 44.363 3.36117C44.9232 3.50958 45.9708 3.99812 46.9117 4.5496C49.7241 6.19847 50.6092 6.43835 51.1793 5.70627C51.826 4.87598 51.5214 4.48725 49.306 3.31683C44.4498 0.750875 44.3711 0.732287 40.8066 1.31113C39.4639 1.52906 38.1697 1.70586 37.9306 1.70381C37.6915 1.70176 36.5212 1.53565 35.3297 1.3347C32.8893 0.923138 32.3485 0.906014 31.1379 1.2018ZM54.6315 5.3575C54.215 5.68841 54.1176 6.18618 54.3745 6.67106C54.4525 6.81815 54.8685 7.13912 55.2991 7.38456C55.7652 7.65034 56.4553 8.26271 57.0051 8.89834C59.1157 11.3393 60.3208 12.4199 61.9856 13.3649C64.7123 14.9123 65.1079 15.3842 66.183 18.372C66.9721 20.5648 67.4053 21.3382 68.7321 22.9231C70.9773 25.6048 71.0318 25.7531 71.1803 29.5824L71.2939 32.5096L72.0601 34.6318C72.76 36.5707 72.8261 36.8614 72.8261 37.998C72.8261 39.1346 72.76 39.4253 72.0601 41.3642L71.2939 43.4864L71.1803 46.4136C71.0318 50.2439 70.9761 50.3948 68.7303 53.0729C67.4579 54.5903 66.8879 55.6059 66.1846 57.61C65.09 60.7279 64.9511 60.8817 61.2178 63.1071C60.0205 63.8207 59.2376 64.5645 56.949 67.1622C55.6813 68.601 55.0192 68.9289 52.4198 69.4053C49.8636 69.8736 49.1999 70.116 47.0554 71.3644C46.0044 71.9764 44.9208 72.487 44.3556 72.6367C43.4275 72.8826 43.3721 72.8803 41.023 72.4931C39.7092 72.2765 38.3503 72.0994 38.003 72.0994C37.6558 72.0994 36.2969 72.2765 34.9831 72.4931C32.6289 72.8811 32.5805 72.8832 31.6431 72.6348C31.075 72.4844 30.0268 71.9928 29.0407 71.4143C27.237 70.3565 26.6773 70.2321 26.2303 70.7897C25.9707 71.1133 25.9051 71.5973 26.0638 72.0151C26.1613 72.2717 28.4212 73.658 29.8032 74.3092C30.2882 74.5376 31.1516 74.8049 31.7216 74.9029C32.6625 75.0648 32.9839 75.0448 35.1995 74.6849C36.5422 74.4669 37.8038 74.2885 38.003 74.2885C38.2023 74.2885 39.4639 74.4669 40.8066 74.6849C44.3223 75.2558 44.8513 75.1354 48.983 72.8223C50.2156 72.1322 50.5317 72.0285 52.8124 71.5647C54.2737 71.2675 55.6312 70.9009 56.1061 70.6751C56.9465 70.2755 58.3039 68.9946 60.2264 66.7865C61.0804 65.8058 61.4889 65.4867 63.1246 64.5219C66.1903 62.7139 67.0337 61.7058 68.1982 58.4564C68.8961 56.5094 69.2905 55.7881 70.3422 54.5365C73.0371 51.3289 73.3573 50.43 73.3599 46.066L73.3611 44.2548L74.1805 41.8948C74.9761 39.6034 75 39.49 75 37.998C75 36.506 74.9761 36.3926 74.1805 34.1012L73.3611 31.7412L73.3599 29.93C73.3573 25.566 73.0371 24.6671 70.3422 21.4595C69.2905 20.2079 68.8961 19.4866 68.1982 17.5396C67.4035 15.3223 66.9901 14.5807 65.9733 13.5496C65.316 12.8831 64.5 12.2839 63.2898 11.5795C61.4763 10.5235 60.8875 10.0044 58.6666 7.50194C56.8109 5.41106 55.4647 4.69552 54.6315 5.3575ZM46.8099 10.4108C45.6066 11.0925 45.9896 12.8831 47.3792 13.0713C47.9188 13.1443 48.0381 13.1031 48.4296 12.7076C49.6051 11.5202 48.2483 9.59618 46.8099 10.4108ZM29.6784 13.2867C27.3723 13.6313 24.3941 16.3032 23.4235 18.8983C23.001 20.028 23.0507 21.4753 23.5471 22.4963C24.3743 24.1974 26.6338 25.8558 28.8385 26.3799C33.0934 27.3914 36.8635 23.9786 36.2585 19.6633C36.0058 17.861 35.1737 16.1428 33.9485 14.8927C32.6599 13.5781 31.2576 13.0507 29.6784 13.2867ZM31.4531 15.6667C32.99 16.4828 34.4049 19.359 34.135 21.1181C33.8505 22.971 32.231 24.3867 30.3957 24.3867C28.5601 24.3867 26.1523 22.9559 25.5035 21.4796C24.9646 20.2534 25.6225 18.6208 27.2926 17.0391C28.802 15.6096 30.3709 15.0921 31.4531 15.6667ZM56.1227 18.4855C54.7884 18.7673 53.1461 19.7919 51.889 21.1269C49.7222 23.428 49.0982 25.7649 50.099 27.8308C51.2614 30.2308 55.0446 32.1612 57.7547 31.7375C59.7153 31.4311 61.449 30.1484 62.2885 28.3834C62.819 27.2679 62.9478 25.1849 62.5683 23.8579C61.9584 21.7255 60.4306 19.6886 58.8701 18.9277C58.079 18.542 56.817 18.3389 56.1227 18.4855ZM14.7812 19.2759C14.4484 19.4717 14.0929 20.1786 14.0929 20.645C14.0929 20.8489 14.2803 21.2277 14.5092 21.4865C14.833 21.8524 15.0425 21.9571 15.4503 21.9571C16.8259 21.9571 17.4544 20.405 16.457 19.4713C16.0528 19.0931 15.251 18.9995 14.7812 19.2759ZM57.7864 20.8552C60.102 21.9176 61.3695 25.7534 60.0949 27.8403C59.5775 28.6874 58.4652 29.4276 57.4865 29.5758C55.5502 29.8691 52.6014 28.3009 51.9753 26.645C51.5323 25.4734 51.9883 24.2116 53.4091 22.6777C54.2924 21.7238 55.1313 21.1327 56.0942 20.7854C56.8074 20.5281 57.0997 20.5401 57.7864 20.8552ZM42.629 21.3019C42.0801 21.8563 42.056 22.5751 42.5661 23.1873C43.227 23.9805 44.4172 23.8392 44.8925 22.9108C45.0928 22.5196 45.1071 22.3409 44.9736 21.891C44.658 20.827 43.4098 20.5135 42.629 21.3019ZM20.5244 29.7409C19.2382 30.3818 19.676 32.4364 21.0987 32.4364C21.6953 32.4364 22.4197 31.8918 22.5568 31.3403C22.703 30.752 22.2935 29.9695 21.7105 29.7235C21.0907 29.462 21.0842 29.462 20.5244 29.7409ZM37.7132 32.3099C36.6199 32.7421 35.0605 34.3433 34.4119 35.6996C33.0325 38.5836 33.2296 41.3199 34.9595 43.3049C36.9077 45.5401 40.0689 45.9448 43.0897 44.3454C45.9716 42.8195 47.245 40.3191 46.418 37.8093C45.7727 35.8506 43.8434 33.6765 41.8384 32.6486C40.4393 31.9315 38.9748 31.8111 37.7132 32.3099ZM40.9727 34.641C42.0465 35.1736 43.5566 36.738 44.0839 37.8641C44.602 38.9701 44.6343 39.5782 44.2206 40.4413C43.3223 42.3154 39.8089 43.6843 37.991 42.8686C35.5086 41.7546 34.9508 38.8466 36.6935 36.1037C37.8755 34.2433 39.2346 33.7788 40.9727 34.641ZM66.4778 37.5825C65.7192 38.0039 65.4862 38.8033 65.8914 39.5946C66.5418 40.8649 68.5001 40.3081 68.5001 38.8529C68.5001 37.8151 67.3547 37.0954 66.4778 37.5825ZM16.8184 39.0232C14.641 39.4041 11.924 41.7317 10.8382 44.1471C10.3029 45.3377 10.185 46.7218 10.5306 47.7551C11.2347 49.8602 13.7747 51.7432 16.5609 52.2258C19.2065 52.684 21.7823 51.3358 22.9394 48.887C24.0846 46.4635 23.39 43.1214 21.2578 40.7953C19.9593 39.3787 18.3834 38.7497 16.8184 39.0232ZM54.9594 40.5959C54.3545 41.1525 54.2676 41.7429 54.6961 42.3841C55.5486 43.6597 57.2761 43.0722 57.2761 41.5066C57.2761 41.1959 57.14 40.9116 56.8525 40.6212C56.2836 40.0466 55.5667 40.0369 54.9594 40.5959ZM18.9455 41.6403C20.7031 42.8384 21.7928 45.828 21.1203 47.6066C20.5986 48.9866 19.3617 49.9547 17.9297 50.104C16.318 50.2719 13.7698 49.039 12.9149 47.6774C12.0655 46.3245 12.5603 44.6882 14.3453 42.9477C16.2086 41.1311 17.6129 40.732 18.9455 41.6403ZM60.2716 50.4447C59.5678 51.004 59.6745 52.3534 60.4561 52.7758C60.9517 53.0438 61.7228 52.952 62.1587 52.5734C62.4963 52.2801 62.5653 52.104 62.5653 51.5361C62.5653 50.9683 62.4963 50.7922 62.1587 50.4989C61.6406 50.0488 60.8003 50.0247 60.2716 50.4447ZM47.9465 51.0316C46.8073 51.3192 45.6298 52.0961 44.3026 53.4357C41.2831 56.4832 41.0246 59.3714 43.5467 61.8797C44.4657 62.7936 46.1939 63.7564 47.4222 64.0389C48.4103 64.2662 50.1277 64.2263 50.9758 63.9562C53.167 63.2587 54.8045 61.1811 55.0526 58.7838C55.3234 56.1666 53.3667 52.4948 51.1059 51.3776C50.2289 50.9444 48.8781 50.7964 47.9465 51.0316ZM33.3471 51.5231C32.7312 51.7243 32.2587 52.5327 32.4073 53.1308C32.6875 54.2585 34.0156 54.6347 34.8262 53.8159C35.3751 53.2615 35.3992 52.5428 34.8891 51.9306C34.4648 51.4212 34.0193 51.3036 33.3471 51.5231ZM50.1636 53.3595C51.7364 54.17 53.1399 56.9946 52.8708 58.8079C52.7288 59.7636 52.0373 60.8665 51.2493 61.3936C50.4439 61.9324 49.9051 62.0549 48.6871 61.9759C46.3016 61.8212 43.7097 59.5779 44.0154 57.9324C44.3276 56.2513 46.3678 53.9417 48.1124 53.2945C48.8823 53.0088 49.5224 53.0291 50.1636 53.3595ZM22.4651 58.1309C21.2442 58.8 21.736 60.8299 23.1191 60.8299C24.5308 60.8299 25.0978 58.925 23.905 58.1904C23.3545 57.8515 23.0015 57.8368 22.4651 58.1309ZM36.5699 63.3759C35.7603 63.829 35.613 64.825 36.2493 65.5442C36.5968 65.937 36.7742 66.019 37.2785 66.019C38.7267 66.019 39.2533 64.0442 37.982 63.3802C37.4898 63.1232 37.0239 63.1217 36.5699 63.3759Z" fill="black"/>
<path fill-rule="evenodd" clip-rule="evenodd" d="M31.1379 1.2018C30.6697 1.3164 29.822 1.6621 29.2541 1.97018C28.6862 2.27827 27.6482 2.84467 26.9474 3.22872C25.8126 3.85074 25.402 3.98232 23.1905 4.43193C21.7318 4.7286 20.3746 5.09522 19.9 5.32091C19.0595 5.72047 17.7022 7.00139 15.7797 9.2095C14.9257 10.1902 14.5172 10.5093 12.8815 11.4741C9.78517 13.3001 8.9841 14.2578 7.80787 17.5395C7.10998 19.4866 6.71554 20.2077 5.66393 21.4595C2.96904 24.6671 2.64879 25.566 2.64618 29.93L2.64502 31.7412L1.82251 34.1012C1.02304 36.3952 1 36.5043 1 37.998C1 39.4917 1.02304 39.6008 1.82251 41.8948L2.64502 44.2548L2.64618 46.066C2.64879 50.43 2.96904 51.3289 5.66393 54.5365C6.71554 55.7881 7.10998 56.5094 7.80787 58.4564C8.6014 60.6706 9.01642 61.4154 10.0328 62.4492C10.7087 63.1366 11.4509 63.6779 12.6422 64.3518C14.3966 65.3446 15.08 65.9473 17.3457 68.5005C18.7052 70.0327 19.6033 70.6524 21.1148 71.1016C22.1251 71.4018 22.2615 71.412 22.6111 71.2138C22.8266 71.0916 23.0541 70.7898 23.1286 70.5277C23.3389 69.7876 22.9849 69.3904 21.7965 69.033C20.5904 68.6701 19.8874 68.1741 18.86 66.9608C16.8181 64.5493 16.0206 63.8333 14.077 62.6665C11.1246 60.8941 10.9071 60.6364 9.82313 57.624C9.03395 55.4312 8.60082 54.6578 7.27402 53.0729C5.02879 50.3912 4.9743 50.2429 4.82577 46.4136L4.71216 43.4864L3.94602 41.3642C3.2461 39.4253 3.18003 39.1346 3.18003 37.998C3.18003 36.8614 3.2461 36.5707 3.94602 34.6318L4.71216 32.5096L4.82316 29.5824C4.96995 25.715 4.99053 25.6582 7.21417 22.9963C8.604 21.3325 9.02859 20.5799 9.82313 18.372C10.9071 15.3596 11.1246 15.1019 14.077 13.3295C16.0379 12.1523 16.5046 11.7311 19.0571 8.8338C20.3248 7.39495 20.9868 7.06711 23.5862 6.59071C26.1425 6.12237 26.8061 5.88 28.9507 4.63156C30.0017 4.01964 31.0853 3.50899 31.6505 3.35927C32.5786 3.11339 32.634 3.11573 34.9831 3.50285C36.2969 3.71946 37.6558 3.89655 38.003 3.89655C38.3503 3.89655 39.7092 3.71946 41.023 3.50285C43.3772 3.11485 43.4256 3.1128 44.363 3.36117C44.9232 3.50958 45.9708 3.99812 46.9117 4.5496C49.7241 6.19847 50.6092 6.43835 51.1793 5.70627C51.826 4.87598 51.5214 4.48725 49.306 3.31683C44.4498 0.750875 44.3711 0.732287 40.8066 1.31113C39.4639 1.52906 38.1697 1.70586 37.9306 1.70381C37.6915 1.70176 36.5212 1.53565 35.3297 1.3347C32.8893 0.923138 32.3485 0.906014 31.1379 1.2018ZM54.6315 5.3575C54.215 5.68841 54.1176 6.18618 54.3745 6.67106C54.4525 6.81815 54.8685 7.13912 55.2991 7.38456C55.7652 7.65034 56.4553 8.26271 57.0051 8.89834C59.1157 11.3393 60.3208 12.4199 61.9856 13.3649C64.7123 14.9123 65.1079 15.3842 66.183 18.372C66.9721 20.5648 67.4053 21.3382 68.7321 22.9231C70.9773 25.6048 71.0318 25.7531 71.1803 29.5824L71.2939 32.5096L72.0601 34.6318C72.76 36.5707 72.8261 36.8614 72.8261 37.998C72.8261 39.1346 72.76 39.4253 72.0601 41.3642L71.2939 43.4864L71.1803 46.4136C71.0318 50.2439 70.9761 50.3948 68.7303 53.0729C67.4579 54.5903 66.8879 55.6059 66.1846 57.61C65.09 60.7279 64.9511 60.8817 61.2178 63.1071C60.0205 63.8207 59.2376 64.5645 56.949 67.1622C55.6813 68.601 55.0192 68.9289 52.4198 69.4053C49.8636 69.8736 49.1999 70.116 47.0554 71.3644C46.0044 71.9764 44.9208 72.487 44.3556 72.6367C43.4275 72.8826 43.3721 72.8803 41.023 72.4931C39.7092 72.2765 38.3503 72.0994 38.003 72.0994C37.6558 72.0994 36.2969 72.2765 34.9831 72.4931C32.6289 72.8811 32.5805 72.8832 31.6431 72.6348C31.075 72.4844 30.0268 71.9928 29.0407 71.4143C27.237 70.3565 26.6773 70.2321 26.2303 70.7897C25.9707 71.1133 25.9051 71.5973 26.0638 72.0151C26.1613 72.2717 28.4212 73.658 29.8032 74.3092C30.2882 74.5376 31.1516 74.8049 31.7216 74.9029C32.6625 75.0648 32.9839 75.0448 35.1995 74.6849C36.5422 74.4669 37.8038 74.2885 38.003 74.2885C38.2023 74.2885 39.4639 74.4669 40.8066 74.6849C44.3223 75.2558 44.8513 75.1354 48.983 72.8223C50.2156 72.1322 50.5317 72.0285 52.8124 71.5647C54.2737 71.2675 55.6312 70.9009 56.1061 70.6751C56.9465 70.2755 58.3039 68.9946 60.2264 66.7865C61.0804 65.8058 61.4889 65.4867 63.1246 64.5219C66.1903 62.7139 67.0337 61.7058 68.1982 58.4564C68.8961 56.5094 69.2905 55.7881 70.3422 54.5365C73.0371 51.3289 73.3573 50.43 73.3599 46.066L73.3611 44.2548L74.1805 41.8948C74.9761 39.6034 75 39.49 75 37.998C75 36.506 74.9761 36.3926 74.1805 34.1012L73.3611 31.7412L73.3599 29.93C73.3573 25.566 73.0371 24.6671 70.3422 21.4595C69.2905 20.2079 68.8961 19.4866 68.1982 17.5396C67.4035 15.3223 66.9901 14.5807 65.9733 13.5496C65.316 12.8831 64.5 12.2839 63.2898 11.5795C61.4763 10.5235 60.8875 10.0044 58.6666 7.50194C56.8109 5.41106 55.4647 4.69552 54.6315 5.3575ZM46.8099 10.4108C45.6066 11.0925 45.9896 12.8831 47.3792 13.0713C47.9188 13.1443 48.0381 13.1031 48.4296 12.7076C49.6051 11.5202 48.2483 9.59618 46.8099 10.4108ZM29.6784 13.2867C27.3723 13.6313 24.3941 16.3032 23.4235 18.8983C23.001 20.028 23.0507 21.4753 23.5471 22.4963C24.3743 24.1974 26.6338 25.8558 28.8385 26.3799C33.0934 27.3914 36.8635 23.9786 36.2585 19.6633C36.0058 17.861 35.1737 16.1428 33.9485 14.8927C32.6599 13.5781 31.2576 13.0507 29.6784 13.2867ZM31.4531 15.6667C32.99 16.4828 34.4049 19.359 34.135 21.1181C33.8505 22.971 32.231 24.3867 30.3957 24.3867C28.5601 24.3867 26.1523 22.9559 25.5035 21.4796C24.9646 20.2534 25.6225 18.6208 27.2926 17.0391C28.802 15.6096 30.3709 15.0921 31.4531 15.6667ZM56.1227 18.4855C54.7884 18.7673 53.1461 19.7919 51.889 21.1269C49.7222 23.428 49.0982 25.7649 50.099 27.8308C51.2614 30.2308 55.0446 32.1612 57.7547 31.7375C59.7153 31.4311 61.449 30.1484 62.2885 28.3834C62.819 27.2679 62.9478 25.1849 62.5683 23.8579C61.9584 21.7255 60.4306 19.6886 58.8701 18.9277C58.079 18.542 56.817 18.3389 56.1227 18.4855ZM14.7812 19.2759C14.4484 19.4717 14.0929 20.1786 14.0929 20.645C14.0929 20.8489 14.2803 21.2277 14.5092 21.4865C14.833 21.8524 15.0425 21.9571 15.4503 21.9571C16.8259 21.9571 17.4544 20.405 16.457 19.4713C16.0528 19.0931 15.251 18.9995 14.7812 19.2759ZM57.7864 20.8552C60.102 21.9176 61.3695 25.7534 60.0949 27.8403C59.5775 28.6874 58.4652 29.4276 57.4865 29.5758C55.5502 29.8691 52.6014 28.3009 51.9753 26.645C51.5323 25.4734 51.9883 24.2116 53.4091 22.6777C54.2924 21.7238 55.1313 21.1327 56.0942 20.7854C56.8074 20.5281 57.0997 20.5401 57.7864 20.8552ZM42.629 21.3019C42.0801 21.8563 42.056 22.5751 42.5661 23.1873C43.227 23.9805 44.4172 23.8392 44.8925 22.9108C45.0928 22.5196 45.1071 22.3409 44.9736 21.891C44.658 20.827 43.4098 20.5135 42.629 21.3019ZM20.5244 29.7409C19.2382 30.3818 19.676 32.4364 21.0987 32.4364C21.6953 32.4364 22.4197 31.8918 22.5568 31.3403C22.703 30.752 22.2935 29.9695 21.7105 29.7235C21.0907 29.462 21.0842 29.462 20.5244 29.7409ZM37.7132 32.3099C36.6199 32.7421 35.0605 34.3433 34.4119 35.6996C33.0325 38.5836 33.2296 41.3199 34.9595 43.3049C36.9077 45.5401 40.0689 45.9448 43.0897 44.3454C45.9716 42.8195 47.245 40.3191 46.418 37.8093C45.7727 35.8506 43.8434 33.6765 41.8384 32.6486C40.4393 31.9315 38.9748 31.8111 37.7132 32.3099ZM40.9727 34.641C42.0465 35.1736 43.5566 36.738 44.0839 37.8641C44.602 38.9701 44.6343 39.5782 44.2206 40.4413C43.3223 42.3154 39.8089 43.6843 37.991 42.8686C35.5086 41.7546 34.9508 38.8466 36.6935 36.1037C37.8755 34.2433 39.2346 33.7788 40.9727 34.641ZM66.4778 37.5825C65.7192 38.0039 65.4862 38.8033 65.8914 39.5946C66.5418 40.8649 68.5001 40.3081 68.5001 38.8529C68.5001 37.8151 67.3547 37.0954 66.4778 37.5825ZM16.8184 39.0232C14.641 39.4041 11.924 41.7317 10.8382 44.1471C10.3029 45.3377 10.185 46.7218 10.5306 47.7551C11.2347 49.8602 13.7747 51.7432 16.5609 52.2258C19.2065 52.684 21.7823 51.3358 22.9394 48.887C24.0846 46.4635 23.39 43.1214 21.2578 40.7953C19.9593 39.3787 18.3834 38.7497 16.8184 39.0232ZM54.9594 40.5959C54.3545 41.1525 54.2676 41.7429 54.6961 42.3841C55.5486 43.6597 57.2761 43.0722 57.2761 41.5066C57.2761 41.1959 57.14 40.9116 56.8525 40.6212C56.2836 40.0466 55.5667 40.0369 54.9594 40.5959ZM18.9455 41.6403C20.7031 42.8384 21.7928 45.828 21.1203 47.6066C20.5986 48.9866 19.3617 49.9547 17.9297 50.104C16.318 50.2719 13.7698 49.039 12.9149 47.6774C12.0655 46.3245 12.5603 44.6882 14.3453 42.9477C16.2086 41.1311 17.6129 40.732 18.9455 41.6403ZM60.2716 50.4447C59.5678 51.004 59.6745 52.3534 60.4561 52.7758C60.9517 53.0438 61.7228 52.952 62.1587 52.5734C62.4963 52.2801 62.5653 52.104 62.5653 51.5361C62.5653 50.9683 62.4963 50.7922 62.1587 50.4989C61.6406 50.0488 60.8003 50.0247 60.2716 50.4447ZM47.9465 51.0316C46.8073 51.3192 45.6298 52.0961 44.3026 53.4357C41.2831 56.4832 41.0246 59.3714 43.5467 61.8797C44.4657 62.7936 46.1939 63.7564 47.4222 64.0389C48.4103 64.2662 50.1277 64.2263 50.9758 63.9562C53.167 63.2587 54.8045 61.1811 55.0526 58.7838C55.3234 56.1666 53.3667 52.4948 51.1059 51.3776C50.2289 50.9444 48.8781 50.7964 47.9465 51.0316ZM33.3471 51.5231C32.7312 51.7243 32.2587 52.5327 32.4073 53.1308C32.6875 54.2585 34.0156 54.6347 34.8262 53.8159C35.3751 53.2615 35.3992 52.5428 34.8891 51.9306C34.4648 51.4212 34.0193 51.3036 33.3471 51.5231ZM50.1636 53.3595C51.7364 54.17 53.1399 56.9946 52.8708 58.8079C52.7288 59.7636 52.0373 60.8665 51.2493 61.3936C50.4439 61.9324 49.9051 62.0549 48.6871 61.9759C46.3016 61.8212 43.7097 59.5779 44.0154 57.9324C44.3276 56.2513 46.3678 53.9417 48.1124 53.2945C48.8823 53.0088 49.5224 53.0291 50.1636 53.3595ZM22.4651 58.1309C21.2442 58.8 21.736 60.8299 23.1191 60.8299C24.5308 60.8299 25.0978 58.925 23.905 58.1904C23.3545 57.8515 23.0015 57.8368 22.4651 58.1309ZM36.5699 63.3759C35.7603 63.829 35.613 64.825 36.2493 65.5442C36.5968 65.937 36.7742 66.019 37.2785 66.019C38.7267 66.019 39.2533 64.0442 37.982 63.3802C37.4898 63.1232 37.0239 63.1217 36.5699 63.3759Z" stroke="black" stroke-width="0.4" mask="url(#path-1-outside-1_316_7638)"/>
</svg>
